<svg width="500" height="500" xmlns="http://www.w3.org/2000/svg" xmlns:xlink="http://www.w3.org/1999/xlink" overflow="hidden"><g><rect x="0" y="0" width="500" height="500" fill="#FFFFFF"/><path d="M47.1543 0 452.846 0C478.888 0 500 21.1116 500 47.1543L500 452.846C500 478.888 478.888 500 452.846 500L47.1543 500C21.1116 500 0 478.888 0 452.846L0 47.1543C0 21.1116 21.1116 0 47.1543 0Z" fill="#39006C" fill-rule="evenodd"/><path d="M250 161C167.709 161 101 227.709 101 310 101 392.291 167.709 459 250 459 332.291 459 399 392.291 399 310 399 227.709 332.291 161 250 161Z" fill="#7700E3" fill-rule="evenodd"/><path d="M250 120C167.709 120 101 186.709 101 269 101 351.291 167.709 418 250 418 332.291 418 399 351.291 399 269 399 186.709 332.291 120 250 120Z" fill="#5E00B3" fill-rule="evenodd"/><path d="M250 79C167.709 79 101 145.709 101 228 101 310.291 167.709 377 250 377 332.291 377 399 310.291 399 228 399 145.709 332.291 79 250 79Z" fill="#39006C" fill-rule="evenodd"/><path d="M250 40C167.709 40 101 106.933 101 189.5 101 272.067 167.709 339 250 339 332.291 339 399 272.067 399 189.5 399 106.933 332.291 40 250 40Z" fill="#28004C" fill-rule="evenodd"/><text fill="#FFFFFF" font-family="1,1_MSFontService,sans-serif" font-weight="400" font-size="109" transform="translate(172.917 217)">VH</text></g></svg>